<?xml version="1.0" encoding="UTF-8" standalone="no"?>
<!-- Generator: Adobe Illustrator 22.0.1, SVG Export Plug-In . SVG Version: 6.00 Build 0)  -->

<svg
   version="1.1"
   id="Layer_1"
   x="0px"
   y="0px"
   viewBox="0 0 170.07874 154.98138"
   xml:space="preserve"
   sodipodi:docname="Hackaday.svg"
   width="170.07874"
   height="154.98138"
   inkscape:version="1.4 (e7c3feb100, 2024-10-09)"
   xmlns:inkscape="http://www.inkscape.org/namespaces/inkscape"
   xmlns:sodipodi="http://sodipodi.sourceforge.net/DTD/sodipodi-0.dtd"
   xmlns="http://www.w3.org/2000/svg"
   xmlns:svg="http://www.w3.org/2000/svg"><defs
   id="defs1" /><sodipodi:namedview
   id="namedview1"
   pagecolor="#ffffff"
   bordercolor="#666666"
   borderopacity="1.0"
   inkscape:showpageshadow="2"
   inkscape:pageopacity="0.0"
   inkscape:pagecheckerboard="0"
   inkscape:deskcolor="#d1d1d1"
   inkscape:zoom="1.6200942"
   inkscape:cx="88.883722"
   inkscape:cy="102.46318"
   inkscape:window-width="1366"
   inkscape:window-height="704"
   inkscape:window-x="0"
   inkscape:window-y="0"
   inkscape:window-maximized="1"
   inkscape:current-layer="Layer_1" />
<style
   type="text/css"
   id="style1">
	.st0{fill:#FFFFFF;}
</style>

<path
   class="st0"
   d="m 0.084367,21.733348 c 0,-1.443061 0.14960528,-2.839362 0.42387241,-4.210743 L 14.356,29.796396 29.534604,12.950337 15.986061,0.89159151 C 17.818717,0.38355309 19.738637,0.084367 21.733361,0.084367 33.6269,0.09994241 43.285741,9.6933307 43.382354,21.586859 v 0.146489 c 0,1.078403 -0.08416,2.153673 -0.233761,3.185324 L 60.035182,39.872874 C 53.885825,44.613462 48.995631,50.787759 45.782259,57.853452 L 28.275437,42.356936 C 26.159156,43.033269 23.952491,43.38234 21.733363,43.38234 9.780598,43.376115 0.09371249,33.686112 0.084367,21.733348 M 148.34539,111.60193 c -2.16615,0 -4.25748,0.31791 -6.2304,0.9132 L 125.77384,98.044044 c -2.68977,7.327486 -7.10621,13.900726 -12.87845,19.158696 l 14.10955,12.49508 c -0.19946,1.17501 -0.30544,2.3625 -0.30855,3.5531 0.0125,11.96523 9.72116,21.65212 21.68329,21.63964 2.09133,0 4.17021,-0.30545 6.17427,-0.90386 l -14.1033,-12.53248 15.15055,-16.74322 14.0254,12.4608 c 0.23998,-1.28099 0.36777,-2.57444 0.36777,-3.92088 v -0.18389 c -0.0966,-11.8873 -9.76166,-21.47133 -21.64898,-21.4651 m -24.0489,-53.748478 17.50682,-15.496516 c 2.06642,0.657632 4.25438,1.025404 6.54208,1.025404 11.96209,-0.01559 21.64898,-9.727392 21.6303,-21.692625 0,-1.396313 -0.13713,-2.789499 -0.4052,-4.160869 L 155.71962,29.805752 140.54415,12.953452 154.09269,0.89782046 C 152.22265,0.37109276 150.28714,0.0999412 148.34539,0.09371225 136.45183,0.10617258 126.7899,9.7026748 126.69639,21.593089 v 0.14649 c 0,1.078399 0.0841,2.153686 0.23065,3.188439 l -16.88348,14.951087 c 6.14625,4.740588 11.03956,10.914895 14.25293,17.980578 v -0.0062 z M 44.295565,98.044044 27.963761,112.51513 c -11.444736,-3.44401 -23.5159409,3.03885 -26.959956,14.48669 -0.59217957,1.96668 -0.90073563,4.00816 -0.91943752,6.06521 v 0.18389 c 0,1.34644 0.12778808,2.63989 0.36777778,3.92088 L 14.483785,124.711 29.634342,141.45422 15.524785,153.9867 c 11.466547,3.42219 23.534628,-3.10116 26.953707,-14.56461 0.598424,-2.00096 0.900749,-4.07983 0.903864,-6.17117 -0.0062,-1.1906 -0.109088,-2.37809 -0.311671,-3.5531 L 57.18025,117.20274 C 51.408009,111.94477 46.988448,105.37153 44.295565,98.044044 m 63.510155,18.809616 c 2.31575,3.51258 1.34645,8.23759 -2.16614,10.55334 -3.50947,2.31576 -8.234466,1.34645 -10.550221,-2.16614 -1.047237,-1.58644 -1.464883,-3.50636 -1.165672,-5.38576 h -1.35891 c 0.638945,4.16088 -2.21289,8.04747 -6.370646,8.6864 -4.157747,0.64206 -8.047468,-2.2129 -8.686397,-6.37065 -0.118445,-0.76673 -0.118445,-1.54903 0,-2.31575 h -1.06281 c 0.551658,4.28554 -2.474715,8.20642 -6.760258,8.75808 -0.308556,0.0405 -0.617111,0.0623 -0.928792,0.0655 -4.276187,0 -7.745132,-3.54064 -7.745132,-7.89475 0,-1.48668 0.402051,-2.86741 1.106444,-4.04866 -10.572044,-8.0849 -17.516182,-21.599169 -17.516182,-36.90557 0,-24.756403 18.114596,-44.828316 40.443046,-44.828316 22.33156,0 40.44929,20.071913 40.44929,44.828316 0,15.384322 -7.01584,28.96092 -17.67826,37.03332 z M 78.115504,74.986263 c -0.963086,-1.82953 -2.31264,-3.422199 -3.958285,-4.672014 -1.960448,-1.193726 -4.204502,-1.842011 -6.498434,-1.87006 -0.7605,0.0032 -1.517875,0.08727 -2.259657,0.255579 -2.867411,0.355301 -5.289135,2.315749 -6.9566,4.578521 -1.464877,1.820179 -2.605601,4.02996 -2.633661,6.408053 -0.22752,1.969788 0.168308,3.936466 0.529855,5.862609 0.467507,2.278361 2.075757,4.135945 3.892832,5.479271 0.844641,0.673218 2.053929,1.59888 3.116754,0.819697 0.707498,-0.947484 0.112204,-2.334446 0.757359,-3.381685 0.243117,-0.997361 0.910095,-1.838881 1.826431,-2.309502 1.860704,-0.931913 3.73075,-1.854474 5.719246,-2.512111 1.614482,-0.473742 2.945333,-1.549033 4.319828,-2.471595 1.804603,-1.393182 3.001429,-3.948928 2.144332,-6.186763 m 7.050091,16.459603 c -1.972899,-0.04986 -4.460076,8.758094 -4.064243,12.604154 1.240473,5.09591 1.67993,-3.57803 4.064243,-3.58426 2.28771,0.0997 1.947976,8.88587 3.752583,3.56869 0.551663,-3.54065 -1.586418,-12.532485 -3.752583,-12.588584 m 28.574445,-5.896915 c 0.36154,-1.926143 0.75736,-3.89282 0.52984,-5.862609 -0.0281,-2.378093 -1.16878,-4.587873 -2.63367,-6.408053 -1.67058,-2.262772 -4.09229,-4.216973 -6.9597,-4.578521 -0.74179,-0.168307 -1.49605,-0.252464 -2.25654,-0.255579 -2.26588,-0.0062 -4.559817,0.707508 -6.498442,1.870061 -1.664348,1.209294 -2.97338,2.873647 -3.958279,4.672014 -0.857102,2.237834 0.339724,4.79358 2.144332,6.186762 1.37449,0.922562 2.705335,1.997853 4.319827,2.477827 1.982262,0.651405 3.858532,1.573966 5.719242,2.505879 0.91321,0.470622 1.5802,1.312141 1.82643,2.309502 0.64515,1.040998 0.0499,2.434201 0.75113,3.381685 1.06905,0.779183 2.27836,-0.146479 3.11364,-0.819697 1.82643,-1.343326 3.43467,-3.20091 3.90219,-5.479271"
   id="path1"
   style="stroke:none;stroke-width:0.168734;fill:#000000" />
</svg>
